<?xml version="1.0"?>
<svg xmlns="http://www.w3.org/2000/svg" height="512px" viewBox="0 0 480 480" width="512px" class=""><g transform="matrix(0.9997 -2.44856e-16 2.44856e-16 0.9997 0.0719927 0.0719927)"><path d="m74.199219 253.414062c-6.421875 9.984376-10.199219 21.832032-10.199219 34.585938 0 35.34375 28.65625 64 64 64 11.832031 0 22.878906-3.273438 32.390625-8.871094 14.984375 33.496094 48.539063 56.871094 87.609375 56.871094 38.832031 0 72.199219-23.105469 87.320312-56.273438 12.496094 5.320313 26.238282 8.273438 40.679688 8.273438 57.441406 0 104-46.558594 104-104 0-55.566406-43.617188-100.824219-98.464844-103.71875 1.617188-7.839844 2.464844-15.960938 2.464844-24.28125 0-66.273438-53.726562-120-120-120-52.632812 0-97.238281 33.9375-113.414062 81.070312-15.507813-10.742187-34.296876-17.070312-54.585938-17.070312-53.015625 0-96 42.984375-96 96 0 45.511719 31.695312 83.535156 74.199219 93.414062zm0 0" fill="#d1a339" data-original="#D1A339" class="active-path" style="fill:#D70015" data-old_color="#d1a339"/><path d="m336 96c0-28.457031-4.984375-55.742188-14.070312-81.070312-17.1875-9.496094-36.914063-14.929688-57.929688-14.929688-52.632812 0-97.238281 33.9375-113.414062 81.070312-15.507813-10.742187-34.296876-17.070312-54.585938-17.070312-53.015625 0-96 42.984375-96 96 0 45.511719 31.695312 83.535156 74.199219 93.414062-6.421875 9.984376-10.199219 21.832032-10.199219 34.585938 0 19 8.328125 36.015625 21.472656 47.734375 3.496094.152344 7 .265625 10.527344.265625 132.550781 0 240-107.449219 240-240zm0 0" fill="#f0d365" data-original="#F0D365" class="" style="fill:#FF3B30" data-old_color="#f0d365"/><path d="m32 464c0 8.835938-7.164062 16-16 16s-16-7.164062-16-16 7.164062-16 16-16 16 7.164062 16 16zm0 0" fill="#f0d365" data-original="#F0D365" class="" style="fill:#FF3B30" data-old_color="#f0d365"/><path d="m112 408c0 17.671875-14.328125 32-32 32s-32-14.328125-32-32 14.328125-32 32-32 32 14.328125 32 32zm0 0" fill="#f0d365" data-original="#F0D365" class="" style="fill:#FF3B30" data-old_color="#f0d365"/><g fill="#fff"><path d="m280 192h16v16h-16zm0 0" data-original="#FFF" class="" style="fill:#FFFFFF" data-old_color="#FFF"/><path d="m248 192h16v16h-16zm0 0" data-original="#FFF" class="" style="fill:#FFFFFF" data-old_color="#FFF"/><path d="m216 192h16v16h-16zm0 0" data-original="#FFF" class="" style="fill:#FFFFFF" data-old_color="#FFF"/><path d="m184 192h16v16h-16zm0 0" data-original="#FFF" class="" style="fill:#FFFFFF" data-old_color="#FFF"/><path d="m360 120h-16c0-44.113281-35.886719-80-80-80v-16c52.9375 0 96 43.0625 96 96zm0 0" data-original="#FFF" class="" style="fill:#FFFFFF" data-old_color="#FFF"/></g></g> </svg>
